<svg id="visual" viewBox="0 0 900 600" width="900" height="600" xmlns="http://www.w3.org/2000/svg" xmlns:xlink="http://www.w3.org/1999/xlink" version="1.1"><path d="M0 139L13.7 139C27.3 139 54.7 139 82 155C109.3 171 136.7 203 163.8 237C191 271 218 307 245.2 290C272.3 273 299.7 203 327 184C354.3 165 381.7 197 409 210C436.3 223 463.7 217 491 239C518.3 261 545.7 311 573 291C600.3 271 627.7 181 654.8 149C682 117 709 143 736.2 170C763.3 197 790.7 225 818 218C845.3 211 872.7 169 886.3 148L900 127L900 0L886.3 0C872.7 0 845.3 0 818 0C790.7 0 763.3 0 736.2 0C709 0 682 0 654.8 0C627.7 0 600.3 0 573 0C545.7 0 518.3 0 491 0C463.7 0 436.3 0 409 0C381.7 0 354.3 0 327 0C299.7 0 272.3 0 245.2 0C218 0 191 0 163.8 0C136.7 0 109.3 0 82 0C54.7 0 27.3 0 13.7 0L0 0Z" fill="#0f2b46"></path><path d="M0 211L13.7 201C27.3 191 54.7 171 82 192C109.3 213 136.7 275 163.8 318C191 361 218 385 245.2 354C272.3 323 299.7 237 327 214C354.3 191 381.7 231 409 252C436.3 273 463.7 275 491 295C518.3 315 545.7 353 573 340C600.3 327 627.7 263 654.8 233C682 203 709 207 736.2 224C763.3 241 790.7 271 818 262C845.3 253 872.7 205 886.3 181L900 157L900 125L886.3 146C872.7 167 845.3 209 818 216C790.7 223 763.3 195 736.2 168C709 141 682 115 654.8 147C627.7 179 600.3 269 573 289C545.7 309 518.3 259 491 237C463.7 215 436.3 221 409 208C381.7 195 354.3 163 327 182C299.7 201 272.3 271 245.2 288C218 305 191 269 163.8 235C136.7 201 109.3 169 82 153C54.7 137 27.3 137 13.7 137L0 137Z" fill="#4f396e"></path><path d="M0 403L13.7 367C27.3 331 54.7 259 82 256C109.3 253 136.7 319 163.8 370C191 421 218 457 245.2 442C272.3 427 299.7 361 327 349C354.3 337 381.7 379 409 393C436.3 407 463.7 393 491 409C518.3 425 545.7 471 573 452C600.3 433 627.7 349 654.8 329C682 309 709 353 736.2 383C763.3 413 790.7 429 818 415C845.3 401 872.7 357 886.3 335L900 313L900 155L886.3 179C872.7 203 845.3 251 818 260C790.7 269 763.3 239 736.2 222C709 205 682 201 654.8 231C627.7 261 600.3 325 573 338C545.7 351 518.3 313 491 293C463.7 273 436.3 271 409 250C381.7 229 354.3 189 327 212C299.7 235 272.3 321 245.2 352C218 383 191 359 163.8 316C136.7 273 109.3 211 82 190C54.7 169 27.3 189 13.7 199L0 209Z" fill="#9f3973"></path><path d="M0 541L13.7 528C27.3 515 54.7 489 82 479C109.3 469 136.7 475 163.8 495C191 515 218 549 245.2 545C272.3 541 299.7 499 327 481C354.3 463 381.7 469 409 475C436.3 481 463.7 487 491 502C518.3 517 545.7 541 573 554C600.3 567 627.7 569 654.8 554C682 539 709 507 736.2 491C763.3 475 790.7 475 818 486C845.3 497 872.7 519 886.3 530L900 541L900 311L886.3 333C872.7 355 845.3 399 818 413C790.7 427 763.3 411 736.2 381C709 351 682 307 654.8 327C627.7 347 600.3 431 573 450C545.7 469 518.3 423 491 407C463.7 391 436.3 405 409 391C381.7 377 354.3 335 327 347C299.7 359 272.3 425 245.2 440C218 455 191 419 163.8 368C136.7 317 109.3 251 82 254C54.7 257 27.3 329 13.7 365L0 401Z" fill="#dc4851"></path><path d="M0 601L13.7 601C27.3 601 54.7 601 82 601C109.3 601 136.7 601 163.8 601C191 601 218 601 245.2 601C272.3 601 299.7 601 327 601C354.3 601 381.7 601 409 601C436.3 601 463.7 601 491 601C518.3 601 545.7 601 573 601C600.3 601 627.7 601 654.8 601C682 601 709 601 736.2 601C763.3 601 790.7 601 818 601C845.3 601 872.7 601 886.3 601L900 601L900 539L886.3 528C872.7 517 845.3 495 818 484C790.7 473 763.3 473 736.2 489C709 505 682 537 654.8 552C627.7 567 600.3 565 573 552C545.7 539 518.3 515 491 500C463.7 485 436.3 479 409 473C381.7 467 354.3 461 327 479C299.7 497 272.3 539 245.2 543C218 547 191 513 163.8 493C136.7 473 109.3 467 82 477C54.7 487 27.3 513 13.7 526L0 539Z" fill="#eb8000"></path></svg>