<svg xmlns="http://www.w3.org/2000/svg" version="1.1" xmlns:xlink="http://www.w3.org/1999/xlink" xmlns:svgjs="http://svgjs.dev/svgjs" width="1458" height="560" preserveAspectRatio="none" viewBox="0 0 1458 560"><g mask="url(&quot;#SvgjsMask1222&quot;)" fill="none"><rect width="1458" height="560" x="0" y="0" fill="url(&quot;#SvgjsLinearGradient1223&quot;)"></rect><path d="M457.8617434924686 244.1658877893332L593.4971010129777 268.0820608582377 617.4132740818823 132.4467033377286 481.7779165613731 108.53053026882407z" fill="rgba(216, 78, 23, 0.51)" class="triangle-float3"></path><path d="M638.1593143421777 546.0845603859087L672.0030292985083 448.09873185584314 582.7594511478461 463.83478253876933z" fill="rgba(216, 78, 23, 0.51)" class="triangle-float1"></path><path d="M805.8515621391965 93.64449840200756L825.8557521616447-48.69270960454024 683.5185441550968-68.69689962698838 663.5143541326487 73.6403083795594z" fill="rgba(216, 78, 23, 0.51)" class="triangle-float2"></path><path d="M1182.874,709.025C1223.043,709.288,1259.069,687.398,1280.659,653.523C1304.195,616.594,1318.878,569.085,1295.772,531.886C1273.446,495.943,1225.185,495.772,1182.874,496.098C1141.381,496.418,1094.619,498.215,1072.955,533.605C1050.662,570.022,1064.608,616.075,1087.28,652.258C1108.37,685.916,1143.155,708.765,1182.874,709.025" fill="rgba(216, 78, 23, 0.51)" class="triangle-float3"></path><path d="M195.3783236892941 244.46148606330294L141.8786711696662 173.46504922863943 70.88223433500269 226.9647017482673 124.38188685463057 297.9611385829308z" fill="rgba(216, 78, 23, 0.51)" class="triangle-float2"></path><path d="M136.15963982086498 472.55784359127045L29.311307833863722 470.6927990189656 27.44626326155887 577.5411310059669 134.29459524856014 579.4061755782717z" fill="rgba(216, 78, 23, 0.51)" class="triangle-float1"></path><path d="M987.4568881757908 339.39380429672735L1104.020947144725 218.68818773592466 983.3153305839221 102.1241287669906 866.7512716149881 222.82974532779332z" fill="rgba(216, 78, 23, 0.51)" class="triangle-float1"></path><path d="M936.9187409189004 309.98678878841844L885.5789425733408 199.88823593880068 775.4803897237231 251.2280342843603 826.8201880692827 361.326587133978z" fill="rgba(216, 78, 23, 0.51)" class="triangle-float3"></path><path d="M1165.3332647551902 463.5946187580684L1266.3545764934495 461.83128520254337 1264.5912429379243 360.8099734642841 1163.5699311996652 362.57330701980914z" fill="rgba(216, 78, 23, 0.51)" class="triangle-float2"></path><path d="M539.736,219.01C564.796,217.749,586.897,204.205,599.875,182.73C613.363,160.41,618.976,132.37,605.634,109.962C592.53,87.955,565.349,81.72,539.736,81.727C514.138,81.734,488.081,88.687,473.9,109.998C458.151,133.665,453.419,165.025,468.115,189.359C482.432,213.065,512.077,220.402,539.736,219.01" fill="rgba(216, 78, 23, 0.51)" class="triangle-float3"></path><path d="M740.168,479.342C779.15,477.434,815.422,459.184,835.264,425.575C855.446,391.389,856.946,349.086,837.499,314.477C817.657,279.166,780.67,255.951,740.168,256.338C700.285,256.719,667.22,282.532,646.003,316.305C623.031,352.871,605.861,398.349,627.459,435.743C649.053,473.13,697.045,481.452,740.168,479.342" fill="rgba(216, 78, 23, 0.51)" class="triangle-float1"></path></g><defs><mask id="SvgjsMask1222"><rect width="1458" height="560" fill="#ffffff"></rect></mask><linearGradient x1="50%" y1="0%" x2="50%" y2="100%" gradientUnits="userSpaceOnUse" id="SvgjsLinearGradient1223"><stop stop-color="#0e2a47" offset="0"></stop><stop stop-color="rgba(0, 0, 0, 1)" offset="1"></stop></linearGradient><style>
                @keyframes float1 {
                    0%{transform: translate(0, 0)}
                    50%{transform: translate(-10px, 0)}
                    100%{transform: translate(0, 0)}
                }

                .triangle-float1 {
                    animation: float1 5s infinite;
                }

                @keyframes float2 {
                    0%{transform: translate(0, 0)}
                    50%{transform: translate(-5px, -5px)}
                    100%{transform: translate(0, 0)}
                }

                .triangle-float2 {
                    animation: float2 4s infinite;
                }

                @keyframes float3 {
                    0%{transform: translate(0, 0)}
                    50%{transform: translate(0, -10px)}
                    100%{transform: translate(0, 0)}
                }

                .triangle-float3 {
                    animation: float3 6s infinite;
                }
            </style></defs></svg>