<svg id="visual" viewBox="0 0 900 600" width="900" height="600" xmlns="http://www.w3.org/2000/svg" xmlns:xlink="http://www.w3.org/1999/xlink" version="1.1"><path d="M0 290L180 308L360 209L540 255L720 305L900 295L900 601L720 601L540 601L360 601L180 601L0 601Z" fill="#f5730a"></path><path d="M0 325L180 366L360 352L540 322L720 254L900 343L900 601L720 601L540 601L360 601L180 601L0 601Z" fill="#e5650a"></path><path d="M0 389L180 355L360 320L540 373L720 287L900 312L900 601L720 601L540 601L360 601L180 601L0 601Z" fill="#d65809"></path><path d="M0 413L180 335L360 339L540 396L720 403L900 396L900 601L720 601L540 601L360 601L180 601L0 601Z" fill="#c64b08"></path><path d="M0 436L180 451L360 382L540 387L720 454L900 439L900 601L720 601L540 601L360 601L180 601L0 601Z" fill="#b63d06"></path><path d="M0 466L180 444L360 464L540 482L720 482L900 429L900 601L720 601L540 601L360 601L180 601L0 601Z" fill="#a63005"></path><path d="M0 494L180 532L360 528L540 488L720 497L900 530L900 601L720 601L540 601L360 601L180 601L0 601Z" fill="#972303"></path><path d="M0 544L180 549L360 548L540 527L720 530L900 557L900 601L720 601L540 601L360 601L180 601L0 601Z" fill="#871400"></path></svg>