<svg xmlns="http://www.w3.org/2000/svg" version="1.1" xmlns:xlink="http://www.w3.org/1999/xlink" xmlns:svgjs="http://svgjs.dev/svgjs" width="1458" height="560" preserveAspectRatio="none" viewBox="0 0 1458 560"><g mask="url(&quot;#SvgjsMask1028&quot;)" fill="none"><rect width="1458" height="560" x="0" y="0" fill="url(&quot;#SvgjsLinearGradient1029&quot;)"></rect><path d="M1026.8777103578595 451.75573971148896L909.1724757535671 394.3470609501854 851.7637969922636 512.0522955544778 969.469031596556 569.4609743157814z" fill="rgba(216, 78, 23, 0.51)" class="triangle-float3"></path><path d="M1472.3174230772481 161.5681574305707L1517.2845484213703 101.89476659949733 1405.2908995026992 64.28077399885065z" fill="rgba(216, 78, 23, 0.51)" class="triangle-float3"></path><path d="M241.47803850600224 459.36447660988495L67.01560750294368 388.6835972259432 87.06898641839982 552.0052621648595z" fill="rgba(216, 78, 23, 0.51)" class="triangle-float2"></path><path d="M1155.4417772535505-50.72216909456463L1060.1517661577855-42.38537337642569 1120.3019652828764 96.38124540815227z" fill="rgba(216, 78, 23, 0.51)" class="triangle-float1"></path><path d="M1417.2749132261163 139.85759663678652L1495.0874124058034 59.280394944416585 1414.5102107134335-18.53210423527065 1336.6977115337463 62.04509745709929z" fill="rgba(216, 78, 23, 0.51)" class="triangle-float1"></path><path d="M627.4825799335752 301.0533168020714L755.0138086894086 371.9039994442011 755.0138086894086 244.3727706883676z" fill="rgba(216, 78, 23, 0.51)" class="triangle-float1"></path><path d="M863.397,58.899C883.84,59.646,903.025,50.114,914.586,33.237C928.044,13.591,937.754,-11.749,925.966,-32.441C914.104,-53.263,887.289,-58.473,863.397,-56.617C842.78,-55.016,825.241,-42.202,815.667,-23.873C806.792,-6.881,808.726,13.112,818.302,29.719C827.888,46.342,844.221,58.198,863.397,58.899" fill="rgba(216, 78, 23, 0.51)" class="triangle-float1"></path><path d="M1440.704,652.895C1476.905,649.817,1507.018,629.74,1527.32,599.61C1551.067,564.367,1575.559,520.813,1554.617,483.834C1533.521,446.584,1483.493,445.343,1440.704,446.665C1400.945,447.893,1360.833,457.692,1338.362,490.515C1312.697,528.002,1299.945,578.45,1324.168,616.884C1347.403,653.75,1397.284,656.587,1440.704,652.895" fill="rgba(216, 78, 23, 0.51)" class="triangle-float1"></path><path d="M786.1215299574424-16.13116350774243L833.1136437930733 76.09605278196065 925.3408600827763 29.103938946329762 878.3487462471454-63.12327734337332z" fill="rgba(216, 78, 23, 0.51)" class="triangle-float1"></path><path d="M278.35811241245847 413.25980349934304L197.38190247982527 380.5432910178259 164.66538999830811 461.51950095045913 245.64159993094134 494.23601343197623z" fill="rgba(216, 78, 23, 0.51)" class="triangle-float1"></path><path d="M754.099,183.95C774.952,182.904,792.047,169.361,802.601,151.346C813.293,133.095,817.88,110.936,807.755,92.365C797.244,73.086,776.051,62.896,754.099,62.388C731.145,61.857,707.952,70.198,695.963,89.779C683.483,110.162,683.811,136.338,696.366,156.675C708.349,176.086,731.316,185.093,754.099,183.95" fill="rgba(216, 78, 23, 0.51)" class="triangle-float1"></path><path d="M0.9576668632593688 319.53418593963903L108.02308537360378 321.40301977130383 2.8265006949241784 212.46876742929462z" fill="rgba(216, 78, 23, 0.51)" class="triangle-float2"></path><path d="M1248.103,99.34C1264.417,100.097,1278.242,88.249,1286.107,73.935C1293.667,60.177,1294.542,43.297,1286.206,29.995C1278.313,17.4,1262.967,13.304,1248.103,13.288C1233.203,13.271,1217.17,16.93,1209.853,29.91C1202.628,42.728,1208.657,57.781,1215.757,70.669C1223.209,84.195,1232.677,98.624,1248.103,99.34" fill="rgba(216, 78, 23, 0.51)" class="triangle-float1"></path><path d="M411.6884671232415-52.81146649771422L282.02011335785005 63.71887169958731 426.1147672580768 113.33463996485276z" fill="rgba(216, 78, 23, 0.51)" class="triangle-float2"></path></g><defs><mask id="SvgjsMask1028"><rect width="1458" height="560" fill="#ffffff"></rect></mask><linearGradient x1="50%" y1="0%" x2="50%" y2="100%" gradientUnits="userSpaceOnUse" id="SvgjsLinearGradient1029"><stop stop-color="#0e2a47" offset="0"></stop><stop stop-color="rgba(0, 0, 0, 1)" offset="1"></stop></linearGradient><style>
                @keyframes float1 {
                    0%{transform: translate(0, 0)}
                    50%{transform: translate(-10px, 0)}
                    100%{transform: translate(0, 0)}
                }

                .triangle-float1 {
                    animation: float1 5s infinite;
                }

                @keyframes float2 {
                    0%{transform: translate(0, 0)}
                    50%{transform: translate(-5px, -5px)}
                    100%{transform: translate(0, 0)}
                }

                .triangle-float2 {
                    animation: float2 4s infinite;
                }

                @keyframes float3 {
                    0%{transform: translate(0, 0)}
                    50%{transform: translate(0, -10px)}
                    100%{transform: translate(0, 0)}
                }

                .triangle-float3 {
                    animation: float3 6s infinite;
                }
            </style></defs></svg>