<svg xmlns="http://www.w3.org/2000/svg" version="1.1" xmlns:xlink="http://www.w3.org/1999/xlink" xmlns:svgjs="http://svgjs.dev/svgjs" width="1440" height="560" preserveAspectRatio="none" viewBox="0 0 1440 560"><g mask="url(&quot;#SvgjsMask1001&quot;)" fill="none"><rect width="1440" height="560" x="0" y="0" fill="rgba(0, 0, 0, 1)"></rect><path d="M0,332.846C70.684,339.162,149.533,363.91,208.411,324.293C267.239,284.709,266.812,199.775,294.67,134.571C321.691,71.325,378.028,15.116,369.668,-53.15C361.283,-121.625,303.68,-172.797,251.504,-217.929C204.57,-258.526,148.009,-284.433,87.318,-297.378C29.902,-309.625,-27.904,-303.086,-85.07,-289.72C-145.158,-275.67,-205.759,-259.297,-251.71,-218.108C-301.155,-173.788,-347.356,-116.838,-351.852,-50.589C-356.28,14.656,-303.763,66.858,-275.038,125.606C-247.204,182.531,-236.381,250.936,-185.773,289.069C-133.911,328.147,-64.678,327.066,0,332.846" fill="#000000"></path><path d="M1440 1278.152C1576.934 1282.329 1715.777 1241.606 1824.339 1158.0430000000001 1928.689 1077.722 1980.8780000000002 951.288 2025.5729999999999 827.422 2067.323 711.716 2086.077 591.301 2072.971 468.993 2059.499 343.273 2036.357 210.40800000000002 1949.597 118.43099999999998 1864.02 27.70799999999997 1732.132 7.025999999999954 1610.638-21.13900000000001 1495.455-47.84100000000001 1374.15-82.66200000000003 1263.652-40.585000000000036 1155.848 0.46699999999998454 1088.713 104.48700000000002 1026.18 201.423 970.45 287.813 937.827 383.93899999999996 924.073 485.821 910.415 586.987 924.949 685.378 947.4 784.963 975.1659999999999 908.121 981.222 1045.722 1070.44 1135.047 1165.723 1230.444 1305.232 1274.0410000000002 1440 1278.152" fill="#000000"></path></g><defs><mask id="SvgjsMask1001"><rect width="1440" height="560" fill="#ffffff"></rect></mask></defs></svg>