<svg xmlns="http://www.w3.org/2000/svg" version="1.1" xmlns:xlink="http://www.w3.org/1999/xlink" xmlns:svgjs="http://svgjs.dev/svgjs" width="1440" height="560" preserveAspectRatio="none" viewBox="0 0 1440 560"><g mask="url(&quot;#SvgjsMask1026&quot;)" fill="none"><rect width="1440" height="560" x="0" y="0" fill="rgba(20, 20, 35, 1)"></rect><path d="M720 742.81C836.82 735.26 935.39 660.29 1010.67 570.67 1079.04 489.27 1110.52 386.32 1108.76 280 1107.02 175.65 1076.76 70.76 1001.21-1.21 927.2-71.76 822.14-85.91 720-90.53 611.2-95.46 497.5-95.46 412.03-27.97 317.44 46.69 254.88 159.57 250.6 280 246.18 404.2 300.71 523.54 389.21 610.79 477.1 697.45 596.85 750.76 720 742.81" fill="rgba(41, 41, 71, 1)"></path><path d="M720 579.46C795.59 574.58 859.37 526.07 908.08 468.08 952.32 415.41 972.69 348.79 971.55 280 970.43 212.48 950.85 144.61 901.96 98.04 854.07 52.39 786.09 43.24 720 40.24 649.6 37.05 576.03 37.05 520.72 80.72 459.52 129.04 419.04 202.08 416.27 280 413.41 360.37 448.7 437.59 505.96 494.04 562.83 550.12 640.32 584.61 720 579.46" fill="rgba(46, 46, 79, 1)"></path><path d="M720 416.12C754.36 413.9 783.35 391.85 805.49 365.49 825.6 341.55 834.86 311.27 834.34 280 833.83 249.31 824.93 218.46 802.71 197.29 780.94 176.54 750.04 172.38 720 171.02 688 169.57 654.56 169.57 629.42 189.42 601.6 211.38 583.2 244.58 581.94 280 580.64 316.53 596.68 351.63 622.71 377.29 648.56 402.78 683.78 418.46 720 416.12" fill="rgba(70, 70, 119, 1)"></path></g><defs><mask id="SvgjsMask1026"><rect width="1440" height="560" fill="#ffffff"></rect></mask></defs></svg>