<svg id="visual" viewBox="0 0 960 540" width="960" height="540" xmlns="http://www.w3.org/2000/svg" xmlns:xlink="http://www.w3.org/1999/xlink" version="1.1"><rect x="0" y="0" width="960" height="540" fill="#000c16"></rect><path d="M0 360L10.7 355C21.3 350 42.7 340 64 335.8C85.3 331.7 106.7 333.3 128 341.8C149.3 350.3 170.7 365.7 192 368.2C213.3 370.7 234.7 360.3 256 354.7C277.3 349 298.7 348 320 354C341.3 360 362.7 373 384 372.8C405.3 372.7 426.7 359.3 448 360C469.3 360.7 490.7 375.3 512 373.2C533.3 371 554.7 352 576 348.7C597.3 345.3 618.7 357.7 640 360.3C661.3 363 682.7 356 704 348.7C725.3 341.3 746.7 333.7 768 329.5C789.3 325.3 810.7 324.7 832 334.5C853.3 344.3 874.7 364.7 896 367.2C917.3 369.7 938.7 354.3 949.3 346.7L960 339L960 541L949.3 541C938.7 541 917.3 541 896 541C874.7 541 853.3 541 832 541C810.7 541 789.3 541 768 541C746.7 541 725.3 541 704 541C682.7 541 661.3 541 640 541C618.7 541 597.3 541 576 541C554.7 541 533.3 541 512 541C490.7 541 469.3 541 448 541C426.7 541 405.3 541 384 541C362.7 541 341.3 541 320 541C298.7 541 277.3 541 256 541C234.7 541 213.3 541 192 541C170.7 541 149.3 541 128 541C106.7 541 85.3 541 64 541C42.7 541 21.3 541 10.7 541L0 541Z" fill="#d86f17"></path><path d="M0 372L10.7 378.7C21.3 385.3 42.7 398.7 64 402.3C85.3 406 106.7 400 128 399C149.3 398 170.7 402 192 397.8C213.3 393.7 234.7 381.3 256 379.3C277.3 377.3 298.7 385.7 320 390.3C341.3 395 362.7 396 384 390.7C405.3 385.3 426.7 373.7 448 373.3C469.3 373 490.7 384 512 393.7C533.3 403.3 554.7 411.7 576 416.3C597.3 421 618.7 422 640 415.7C661.3 409.3 682.7 395.7 704 387.5C725.3 379.3 746.7 376.7 768 374.8C789.3 373 810.7 372 832 371.5C853.3 371 874.7 371 896 370.7C917.3 370.3 938.7 369.7 949.3 369.3L960 369L960 541L949.3 541C938.7 541 917.3 541 896 541C874.7 541 853.3 541 832 541C810.7 541 789.3 541 768 541C746.7 541 725.3 541 704 541C682.7 541 661.3 541 640 541C618.7 541 597.3 541 576 541C554.7 541 533.3 541 512 541C490.7 541 469.3 541 448 541C426.7 541 405.3 541 384 541C362.7 541 341.3 541 320 541C298.7 541 277.3 541 256 541C234.7 541 213.3 541 192 541C170.7 541 149.3 541 128 541C106.7 541 85.3 541 64 541C42.7 541 21.3 541 10.7 541L0 541Z" fill="#e25c28"></path><path d="M0 434L10.7 436C21.3 438 42.7 442 64 443.3C85.3 444.7 106.7 443.3 128 444.3C149.3 445.3 170.7 448.7 192 445.5C213.3 442.3 234.7 432.7 256 426.5C277.3 420.3 298.7 417.7 320 414C341.3 410.3 362.7 405.7 384 410.2C405.3 414.7 426.7 428.3 448 434.2C469.3 440 490.7 438 512 432.3C533.3 426.7 554.7 417.3 576 418.8C597.3 420.3 618.7 432.7 640 439.2C661.3 445.7 682.7 446.3 704 441.5C725.3 436.7 746.7 426.3 768 421.5C789.3 416.7 810.7 417.3 832 421.2C853.3 425 874.7 432 896 437.2C917.3 442.3 938.7 445.7 949.3 447.3L960 449L960 541L949.3 541C938.7 541 917.3 541 896 541C874.7 541 853.3 541 832 541C810.7 541 789.3 541 768 541C746.7 541 725.3 541 704 541C682.7 541 661.3 541 640 541C618.7 541 597.3 541 576 541C554.7 541 533.3 541 512 541C490.7 541 469.3 541 448 541C426.7 541 405.3 541 384 541C362.7 541 341.3 541 320 541C298.7 541 277.3 541 256 541C234.7 541 213.3 541 192 541C170.7 541 149.3 541 128 541C106.7 541 85.3 541 64 541C42.7 541 21.3 541 10.7 541L0 541Z" fill="#e8463a"></path><path d="M0 454L10.7 454.8C21.3 455.7 42.7 457.3 64 458C85.3 458.7 106.7 458.3 128 461.5C149.3 464.7 170.7 471.3 192 469.8C213.3 468.3 234.7 458.7 256 455.8C277.3 453 298.7 457 320 461.3C341.3 465.7 362.7 470.3 384 469.8C405.3 469.3 426.7 463.7 448 463.3C469.3 463 490.7 468 512 470.2C533.3 472.3 554.7 471.7 576 466.8C597.3 462 618.7 453 640 453C661.3 453 682.7 462 704 467C725.3 472 746.7 473 768 473.7C789.3 474.3 810.7 474.7 832 469.5C853.3 464.3 874.7 453.7 896 452.5C917.3 451.3 938.7 459.7 949.3 463.8L960 468L960 541L949.3 541C938.7 541 917.3 541 896 541C874.7 541 853.3 541 832 541C810.7 541 789.3 541 768 541C746.7 541 725.3 541 704 541C682.7 541 661.3 541 640 541C618.7 541 597.3 541 576 541C554.7 541 533.3 541 512 541C490.7 541 469.3 541 448 541C426.7 541 405.3 541 384 541C362.7 541 341.3 541 320 541C298.7 541 277.3 541 256 541C234.7 541 213.3 541 192 541C170.7 541 149.3 541 128 541C106.7 541 85.3 541 64 541C42.7 541 21.3 541 10.7 541L0 541Z" fill="#eb2c4d"></path><path d="M0 502L10.7 501.2C21.3 500.3 42.7 498.7 64 497.5C85.3 496.3 106.7 495.7 128 496.3C149.3 497 170.7 499 192 497.5C213.3 496 234.7 491 256 488.5C277.3 486 298.7 486 320 489C341.3 492 362.7 498 384 499.5C405.3 501 426.7 498 448 496.8C469.3 495.7 490.7 496.3 512 494.8C533.3 493.3 554.7 489.7 576 489.2C597.3 488.7 618.7 491.3 640 494.3C661.3 497.3 682.7 500.7 704 500.5C725.3 500.3 746.7 496.7 768 493.3C789.3 490 810.7 487 832 486C853.3 485 874.7 486 896 487.8C917.3 489.7 938.7 492.3 949.3 493.7L960 495L960 541L949.3 541C938.7 541 917.3 541 896 541C874.7 541 853.3 541 832 541C810.7 541 789.3 541 768 541C746.7 541 725.3 541 704 541C682.7 541 661.3 541 640 541C618.7 541 597.3 541 576 541C554.7 541 533.3 541 512 541C490.7 541 469.3 541 448 541C426.7 541 405.3 541 384 541C362.7 541 341.3 541 320 541C298.7 541 277.3 541 256 541C234.7 541 213.3 541 192 541C170.7 541 149.3 541 128 541C106.7 541 85.3 541 64 541C42.7 541 21.3 541 10.7 541L0 541Z" fill="#e90061"></path></svg>