<svg id="visual" viewBox="0 0 540 960" width="540" height="960" xmlns="http://www.w3.org/2000/svg" xmlns:xlink="http://www.w3.org/1999/xlink" version="1.1"><rect x="0" y="0" width="540" height="960" fill="#010c17"></rect><path d="M0 614L54 582L108 649L162 660L216 616L270 638L324 678L378 571L432 655L486 654L540 576L540 961L486 961L432 961L378 961L324 961L270 961L216 961L162 961L108 961L54 961L0 961Z" fill="#f5730a"></path><path d="M0 632L54 698L108 646L162 679L216 656L270 660L324 645L378 685L432 608L486 657L540 731L540 961L486 961L432 961L378 961L324 961L270 961L216 961L162 961L108 961L54 961L0 961Z" fill="#e5650a"></path><path d="M0 748L54 702L108 654L162 680L216 738L270 685L324 716L378 748L432 761L486 756L540 667L540 961L486 961L432 961L378 961L324 961L270 961L216 961L162 961L108 961L54 961L0 961Z" fill="#d65809"></path><path d="M0 709L54 708L108 764L162 783L216 719L270 718L324 774L378 781L432 719L486 761L540 782L540 961L486 961L432 961L378 961L324 961L270 961L216 961L162 961L108 961L54 961L0 961Z" fill="#c64b08"></path><path d="M0 750L54 808L108 830L162 763L216 828L270 817L324 746L378 790L432 806L486 752L540 812L540 961L486 961L432 961L378 961L324 961L270 961L216 961L162 961L108 961L54 961L0 961Z" fill="#b63d06"></path><path d="M0 793L54 822L108 820L162 802L216 793L270 803L324 851L378 814L432 807L486 833L540 846L540 961L486 961L432 961L378 961L324 961L270 961L216 961L162 961L108 961L54 961L0 961Z" fill="#a63005"></path><path d="M0 837L54 851L108 888L162 898L216 886L270 838L324 832L378 837L432 867L486 845L540 874L540 961L486 961L432 961L378 961L324 961L270 961L216 961L162 961L108 961L54 961L0 961Z" fill="#972303"></path><path d="M0 923L54 883L108 909L162 883L216 924L270 897L324 900L378 924L432 900L486 894L540 883L540 961L486 961L432 961L378 961L324 961L270 961L216 961L162 961L108 961L54 961L0 961Z" fill="#871400"></path></svg>