<svg id="visual" viewBox="0 0 960 540" width="960" height="540" xmlns="http://www.w3.org/2000/svg" xmlns:xlink="http://www.w3.org/1999/xlink" version="1.1"><rect x="0" y="0" width="960" height="540" fill="#000c16"></rect><path d="M0 396L10.7 392C21.3 388 42.7 380 64 376.7C85.3 373.3 106.7 374.7 128 381.3C149.3 388 170.7 400 192 402C213.3 404 234.7 396 256 391.5C277.3 387 298.7 386 320 390.8C341.3 395.7 362.7 406.3 384 406.2C405.3 406 426.7 395 448 395.5C469.3 396 490.7 408 512 406.3C533.3 404.7 554.7 389.3 576 386.5C597.3 383.7 618.7 393.3 640 395.5C661.3 397.7 682.7 392.3 704 386.7C725.3 381 746.7 375 768 371.7C789.3 368.3 810.7 367.7 832 375.5C853.3 383.3 874.7 399.7 896 401.7C917.3 403.7 938.7 391.3 949.3 385.2L960 379L960 541L949.3 541C938.7 541 917.3 541 896 541C874.7 541 853.3 541 832 541C810.7 541 789.3 541 768 541C746.7 541 725.3 541 704 541C682.7 541 661.3 541 640 541C618.7 541 597.3 541 576 541C554.7 541 533.3 541 512 541C490.7 541 469.3 541 448 541C426.7 541 405.3 541 384 541C362.7 541 341.3 541 320 541C298.7 541 277.3 541 256 541C234.7 541 213.3 541 192 541C170.7 541 149.3 541 128 541C106.7 541 85.3 541 64 541C42.7 541 21.3 541 10.7 541L0 541Z" fill="#d86f17"></path><path d="M0 406L10.7 411.3C21.3 416.7 42.7 427.3 64 430.2C85.3 433 106.7 428 128 427.2C149.3 426.3 170.7 429.7 192 426.3C213.3 423 234.7 413 256 411.3C277.3 409.7 298.7 416.3 320 420.2C341.3 424 362.7 425 384 420.7C405.3 416.3 426.7 406.7 448 406.3C469.3 406 490.7 415 512 422.8C533.3 430.7 554.7 437.3 576 441C597.3 444.7 618.7 445.3 640 440.3C661.3 435.3 682.7 424.7 704 418.2C725.3 411.7 746.7 409.3 768 407.8C789.3 406.3 810.7 405.7 832 405.2C853.3 404.7 874.7 404.3 896 404C917.3 403.7 938.7 403.3 949.3 403.2L960 403L960 541L949.3 541C938.7 541 917.3 541 896 541C874.7 541 853.3 541 832 541C810.7 541 789.3 541 768 541C746.7 541 725.3 541 704 541C682.7 541 661.3 541 640 541C618.7 541 597.3 541 576 541C554.7 541 533.3 541 512 541C490.7 541 469.3 541 448 541C426.7 541 405.3 541 384 541C362.7 541 341.3 541 320 541C298.7 541 277.3 541 256 541C234.7 541 213.3 541 192 541C170.7 541 149.3 541 128 541C106.7 541 85.3 541 64 541C42.7 541 21.3 541 10.7 541L0 541Z" fill="#e25c28"></path><path d="M0 455L10.7 456.7C21.3 458.3 42.7 461.7 64 462.8C85.3 464 106.7 463 128 463.7C149.3 464.3 170.7 466.7 192 464C213.3 461.3 234.7 453.7 256 448.8C277.3 444 298.7 442 320 439C341.3 436 362.7 432 384 435.5C405.3 439 426.7 450 448 454.7C469.3 459.3 490.7 457.7 512 453.3C533.3 449 554.7 442 576 443.3C597.3 444.7 618.7 454.3 640 459.5C661.3 464.7 682.7 465.3 704 461.5C725.3 457.7 746.7 449.3 768 445.3C789.3 441.3 810.7 441.7 832 444.7C853.3 447.7 874.7 453.3 896 457.5C917.3 461.7 938.7 464.3 949.3 465.7L960 467L960 541L949.3 541C938.7 541 917.3 541 896 541C874.7 541 853.3 541 832 541C810.7 541 789.3 541 768 541C746.7 541 725.3 541 704 541C682.7 541 661.3 541 640 541C618.7 541 597.3 541 576 541C554.7 541 533.3 541 512 541C490.7 541 469.3 541 448 541C426.7 541 405.3 541 384 541C362.7 541 341.3 541 320 541C298.7 541 277.3 541 256 541C234.7 541 213.3 541 192 541C170.7 541 149.3 541 128 541C106.7 541 85.3 541 64 541C42.7 541 21.3 541 10.7 541L0 541Z" fill="#e8463a"></path><path d="M0 471L10.7 471.7C21.3 472.3 42.7 473.7 64 474.2C85.3 474.7 106.7 474.3 128 476.8C149.3 479.3 170.7 484.7 192 483.5C213.3 482.3 234.7 474.7 256 472.5C277.3 470.3 298.7 473.7 320 477.2C341.3 480.7 362.7 484.3 384 483.8C405.3 483.3 426.7 478.7 448 478.3C469.3 478 490.7 482 512 483.8C533.3 485.7 554.7 485.3 576 481.5C597.3 477.7 618.7 470.3 640 470.3C661.3 470.3 682.7 477.7 704 481.7C725.3 485.7 746.7 486.3 768 486.8C789.3 487.3 810.7 487.7 832 483.5C853.3 479.3 874.7 470.7 896 469.7C917.3 468.7 938.7 475.3 949.3 478.7L960 482L960 541L949.3 541C938.7 541 917.3 541 896 541C874.7 541 853.3 541 832 541C810.7 541 789.3 541 768 541C746.7 541 725.3 541 704 541C682.7 541 661.3 541 640 541C618.7 541 597.3 541 576 541C554.7 541 533.3 541 512 541C490.7 541 469.3 541 448 541C426.7 541 405.3 541 384 541C362.7 541 341.3 541 320 541C298.7 541 277.3 541 256 541C234.7 541 213.3 541 192 541C170.7 541 149.3 541 128 541C106.7 541 85.3 541 64 541C42.7 541 21.3 541 10.7 541L0 541Z" fill="#eb2c4d"></path><path d="M0 509L10.7 508.3C21.3 507.7 42.7 506.3 64 505.5C85.3 504.7 106.7 504.3 128 504.8C149.3 505.3 170.7 506.7 192 505.5C213.3 504.3 234.7 500.7 256 498.8C277.3 497 298.7 497 320 499.3C341.3 501.7 362.7 506.3 384 507.5C405.3 508.7 426.7 506.3 448 505.5C469.3 504.7 490.7 505.3 512 504.2C533.3 503 554.7 500 576 499.5C597.3 499 618.7 501 640 503.3C661.3 505.7 682.7 508.3 704 508.2C725.3 508 746.7 505 768 502.3C789.3 499.7 810.7 497.3 832 496.7C853.3 496 874.7 497 896 498.5C917.3 500 938.7 502 949.3 503L960 504L960 541L949.3 541C938.7 541 917.3 541 896 541C874.7 541 853.3 541 832 541C810.7 541 789.3 541 768 541C746.7 541 725.3 541 704 541C682.7 541 661.3 541 640 541C618.7 541 597.3 541 576 541C554.7 541 533.3 541 512 541C490.7 541 469.3 541 448 541C426.7 541 405.3 541 384 541C362.7 541 341.3 541 320 541C298.7 541 277.3 541 256 541C234.7 541 213.3 541 192 541C170.7 541 149.3 541 128 541C106.7 541 85.3 541 64 541C42.7 541 21.3 541 10.7 541L0 541Z" fill="#e90061"></path></svg>