<svg id="visual" viewBox="0 0 600 900" width="600" height="900" xmlns="http://www.w3.org/2000/svg" xmlns:xlink="http://www.w3.org/1999/xlink" version="1.1"><rect x="0" y="0" width="600" height="900" fill="#040614"></rect><path d="M0 354L75 428L150 353L225 390L300 361L375 391L450 427L525 406L600 378L600 901L525 901L450 901L375 901L300 901L225 901L150 901L75 901L0 901Z" fill="#f5730a"></path><path d="M0 487L75 488L150 423L225 420L300 422L375 437L450 471L525 458L600 486L600 901L525 901L450 901L375 901L300 901L225 901L150 901L75 901L0 901Z" fill="#e7670a"></path><path d="M0 477L75 538L150 468L225 527L300 530L375 524L450 534L525 487L600 523L600 901L525 901L450 901L375 901L300 901L225 901L150 901L75 901L0 901Z" fill="#da5b09"></path><path d="M0 585L75 555L150 560L225 576L300 526L375 556L450 573L525 549L600 530L600 901L525 901L450 901L375 901L300 901L225 901L150 901L75 901L0 901Z" fill="#cc4f08"></path><path d="M0 607L75 604L150 640L225 607L300 597L375 638L450 615L525 582L600 610L600 901L525 901L450 901L375 901L300 901L225 901L150 901L75 901L0 901Z" fill="#be4407"></path><path d="M0 684L75 677L150 651L225 661L300 642L375 661L450 643L525 663L600 663L600 901L525 901L450 901L375 901L300 901L225 901L150 901L75 901L0 901Z" fill="#b03806"></path><path d="M0 740L75 725L150 730L225 715L300 719L375 738L450 702L525 709L600 705L600 901L525 901L450 901L375 901L300 901L225 901L150 901L75 901L0 901Z" fill="#a32d04"></path><path d="M0 775L75 783L150 764L225 776L300 776L375 770L450 764L525 775L600 777L600 901L525 901L450 901L375 901L300 901L225 901L150 901L75 901L0 901Z" fill="#952103"></path><path d="M0 832L75 818L150 836L225 837L300 838L375 822L450 826L525 825L600 833L600 901L525 901L450 901L375 901L300 901L225 901L150 901L75 901L0 901Z" fill="#871400"></path></svg>