<svg xmlns="http://www.w3.org/2000/svg" version="1.1" xmlns:xlink="http://www.w3.org/1999/xlink" xmlns:svgjs="http://svgjs.com/svgjs" width="1440" height="560" preserveAspectRatio="none" viewBox="0 0 1440 560"><g mask="url(&quot;#SvgjsMask1050&quot;)" fill="none"><rect width="1440" height="560" x="0" y="0" fill="url(#SvgjsLinearGradient1051)"></rect><path d="M700 84C657.02 84 612.5 109.42 612.5 140C612.5 173.32 657.3 211.79 700 211.79C739.94 211.79 777.78 173.53 777.78 140C777.78 109.64 739.66 84 700 84" stroke="rgba(0, 0, 0, 1)" stroke-width="2"></path><path d="M980 118.46C958.19 118.46 935.33 118.7 933.33 140C927.76 199.47 960.05 209.27 964.86 280C969.57 349.27 946.37 354.88 952.37 420C953.94 437.09 965.67 444.42 980 444.42C995.89 444.42 997.85 433.89 1012.81 420C1067.85 368.91 1064.48 364.98 1120 314.46C1141.41 294.98 1166.67 298.4 1166.67 280C1166.67 260.04 1143.8 258.34 1120 237.74C1062.91 188.34 1062.36 188.97 1004.89 140C992.36 129.33 993.97 118.46 980 118.46" stroke="rgba(0, 0, 0, 1)" stroke-width="2"></path><path d="M700 400.91C696.15 400.91 691.43 410.34 691.43 420C691.43 430.94 696.16 442.11 700 442.11C703.73 442.11 706.56 430.99 706.56 420C706.56 410.39 703.71 400.91 700 400.91" stroke="rgba(0, 0, 0, 1)" stroke-width="2"></path><path d="M74.12 140C100.4 79.15 93.1 33.25 140 24.14C196.04 13.25 211.86 59.17 280 100C308.53 117.1 333.33 117.78 333.33 140C333.33 165.78 301.18 164.23 280 196C254.52 234.23 268.51 244.3 240 280C198.51 331.95 191.13 371.3 140 371.3C85.87 371.3 45.74 337.11 29.47 280C12.8 221.46 45.14 207.08 74.12 140" stroke="rgba(0, 0, 0, 1)" stroke-width="2"></path><path d="M420 53.33C402.99 53.33 380 16.67 380 0C380 -10 400 0 420 0C431.91 0 443.83 -7.73 443.83 0C443.83 18.94 434.9 53.33 420 53.33" stroke="rgba(0, 0, 0, 1)" stroke-width="2"></path><path d="M700 14C690.84 14 684.09 4 684.09 0C684.09 -3 692.05 0 700 0C717.5 0 735 -3.37 735 0C735 3.63 716.29 14 700 14" stroke="rgba(0, 0, 0, 1)" stroke-width="2"></path><path d="M980 51.15C945.26 51.15 901.76 13.92 901.76 0C901.76 -11.65 940.88 0 980 0C999.56 0 1019.12 -9.67 1019.12 0C1019.12 15.91 1003.94 51.15 980 51.15" stroke="rgba(0, 0, 0, 1)" stroke-width="2"></path><path d="M1082.67 140C1082.67 125.59 1100.17 124.43 1120 112.46C1188.83 70.9 1193.52 77.06 1260 32.94C1278.25 20.83 1269.47 4.7 1289.47 0C1339.47 -11.77 1344.74 0 1400 0C1420.59 0 1426.86 -12.89 1441.18 0C1496.86 50.11 1494.56 61.63 1540 126C1543.97 131.63 1540 133 1540 140C1540 148.24 1544.84 150.01 1540 156.47C1492.34 220.01 1487.5 218.23 1435 280C1417.5 300.59 1417.87 300.91 1400 321.18C1356.16 370.91 1311.58 377.23 1311.58 420C1311.58 453.31 1351.66 459.06 1400 473.33C1465.87 492.77 1493.82 458.82 1540 487.41C1563.82 502.16 1563.9 547.61 1540 560C1493.9 583.9 1470 560 1400 560C1351.25 560 1339.34 580.2 1302.5 560C1269.34 541.82 1295.02 501.01 1260 483.23C1203.77 454.67 1184.1 488.37 1120 467.32C1087.85 456.76 1067.5 444.24 1067.5 420C1067.5 394.73 1091.49 391.51 1120 368.31C1177.53 321.51 1239.58 327.14 1239.58 280C1239.58 228.84 1180.19 225.4 1120 171.7C1101.73 155.4 1082.67 155.21 1082.67 140" stroke="rgba(0, 0, 0, 1)" stroke-width="2"></path><path d="M451.11 280C506.68 245.76 506.45 207.41 560 207.41C609.9 207.41 644.3 231.45 658 280C674.3 337.75 646.72 353.19 620 420C597.72 475.69 606.33 499.47 560 525C506.33 554.58 473.03 557.82 420 530.21C372.2 505.32 358.33 475.97 358.33 420C358.33 357.69 382.64 350.04 420 293.66C429.03 280.04 436.68 288.89 451.11 280" stroke="rgba(0, 0, 0, 1)" stroke-width="2"></path><path d="M760 280C776.75 236.21 807.56 214.12 840 214.12C862.69 214.12 859.19 245.62 870.27 280C892.35 348.56 873.67 358.96 906.32 420C928.53 461.52 944.92 450.76 980 485.12C1016.39 520.76 1049.25 537.7 1049.25 560C1049.25 575.14 1014.63 560 980 560C910 560 910 560 840 560C822.5 560 812.59 573.49 805 560C773.21 503.49 772.76 491.63 761.25 420C750.26 351.63 737.37 339.15 760 280" stroke="rgba(0, 0, 0, 1)" stroke-width="2"></path><path d="M271.06 560C271.06 557.57 274.46 551.6 280 551.6C295.08 551.6 312.31 557.87 312.31 560C312.31 562.07 296.15 560 280 560C275.53 560 271.06 561.77 271.06 560" stroke="rgba(0, 0, 0, 1)" stroke-width="2"></path><path d="M1353.33 140C1353.33 115.33 1379.19 87.5 1400 87.5C1418.08 87.5 1431.11 114.73 1431.11 140C1431.11 160.98 1417.57 180 1400 180C1378.68 180 1353.33 161.58 1353.33 140" stroke="rgba(0, 0, 0, 1)" stroke-width="2"></path><path d="M121.58 280C121.58 225.15 131.22 163.33 140 163.33C148.76 163.33 156.67 224.66 156.67 280C156.67 290.6 148.52 295.22 140 295.22C130.98 295.22 121.58 291.1 121.58 280" stroke="rgba(0, 0, 0, 1)" stroke-width="2"></path><path d="M400 420C400 399.79 402 379.02 420 379.02C464.5 379.02 525 400.67 525 420C525 439.03 465.65 455.74 420 455.74C403.15 455.74 400 438.15 400 420" stroke="rgba(0, 0, 0, 1)" stroke-width="2"></path><path d="M815.94 420C815.94 392.88 828.79 365 840 365C850.95 365 860.26 392.79 860.26 420C860.26 443.62 850.91 466.67 840 466.67C828.75 466.67 815.94 443.72 815.94 420" stroke="rgba(0, 0, 0, 1)" stroke-width="2"></path><path d="M911.63 560C911.63 550.98 948.93 525.81 980 525.81C998.92 525.81 1011.61 549.82 1011.61 560C1011.61 566.91 995.81 560 980 560C945.82 560 911.63 568.07 911.63 560" stroke="rgba(0, 0, 0, 1)" stroke-width="2"></path><path d="M1365 560C1365 551.1 1379.76 528.89 1400 528.89C1436.46 528.89 1478.4 551.94 1478.4 560C1478.4 567.49 1439.2 560 1400 560C1382.5 560 1365 566.65 1365 560" stroke="rgba(0, 0, 0, 1)" stroke-width="2"></path></g><defs><mask id="SvgjsMask1050"><rect width="1440" height="560" fill="#ffffff"></rect></mask><linearGradient x1="50%" y1="100%" x2="50%" y2="0%" gradientUnits="userSpaceOnUse" id="SvgjsLinearGradient1051"><stop stop-color="#0e2a47" offset="0"></stop><stop stop-color="rgba(234, 45, 77, 1)" offset="1"></stop></linearGradient></defs></svg>