<svg xmlns="http://www.w3.org/2000/svg" version="1.1" xmlns:xlink="http://www.w3.org/1999/xlink" xmlns:svgjs="http://svgjs.com/svgjs" width="1440" height="560" preserveAspectRatio="none" viewBox="0 0 1440 560"><g mask="url(&quot;#SvgjsMask1136&quot;)" fill="none"><rect width="1440" height="560" x="0" y="0" fill="url(#SvgjsLinearGradient1137)"></rect><path d="M400 0C410.59 0.57 410.04 3.67 420 7.57C490.04 34.99 490.15 63.06 560 62.63C630.15 62.19 629.37 32.16 700 5.83C713.37 0.85 713.76 0.59 728 0C783.76 -2.32 784 0 840 0C910 0 910 0 980 0C1050 0 1050 0 1120 0C1190 0 1190 0 1260 0C1330 0 1330 0 1400 0C1470 0 1505 -35 1540 0C1575 35 1540 70 1540 140C1540 210 1540 210 1540 280C1540 350 1540 350 1540 420C1540 466.35 1556.51 474.39 1540 512.7C1526.34 544.39 1513.99 548.4 1479.66 560C1443.99 572.05 1439.83 560 1400 560C1330 560 1330 560 1260 560C1190 560 1190 560 1120 560C1050 560 1050 560 980 560C923.05 560 919.56 569.05 866.1 560C849.56 557.2 856.68 537.92 840 536.31C773.63 529.92 766.18 533.57 700 544C691 545.42 698.61 558.97 689.63 560C628.61 566.97 624.82 560 560 560C490 560 490 560 420 560C360 560 346.81 578.72 300 560C276.81 550.72 290.9 504 280 504C268.83 504 280 550.34 255.86 560C210 578.34 197.93 560 140 560C70 560 40.98 589.02 0 560C-29.02 539.44 -8.28 508.12 0 460.83C3.97 438.12 24.5 440.25 24.5 420C24.5 400.62 3.79 403.25 0 381.57C-8.46 333.25 0 330.78 0 280C0 210 0 210 0 140C0 70 -35 35 0 0C35 -35 70 0 140 0C210 0 210 0 280 0C340 0 340.59 -3.21 400 0" stroke="rgba(0, 0, 0, 1)" stroke-width="2"></path><path d="M280 257.35C262.62 258.99 251.48 265.4 251.48 280C251.48 306.34 253.26 332.98 280 339.23C337.52 352.67 354.45 339.77 420 319.38C449.65 310.16 470.4 295.15 470.4 280C470.4 267.48 446.07 267.15 420 264.05C350.87 255.83 346.88 251.02 280 257.35" stroke="rgba(0, 0, 0, 1)" stroke-width="2"></path><path d="M1260 239.17C1241.25 239.17 1236.94 259.84 1236.94 280C1236.94 298.74 1242.04 316.98 1260 316.98C1305.15 316.98 1363.16 299.33 1363.16 280C1363.16 260.43 1304.36 239.17 1260 239.17" stroke="rgba(0, 0, 0, 1)" stroke-width="2"></path><path d="M1120 407.44C1112.13 407.44 1105.37 413.74 1105.37 420C1105.37 426.23 1112.14 432.41 1120 432.41C1130.1 432.41 1141.3 426.23 1141.3 420C1141.3 413.75 1130.09 407.44 1120 407.44" stroke="rgba(0, 0, 0, 1)" stroke-width="2"></path><path d="M256.67 0C268.49 0.36 268.78 0.47 280 4.24C350.44 27.9 354.04 21.52 420 54.86C488.32 89.4 548.57 98.38 548.57 140C548.57 180.83 489.58 202.68 420 219.75C355.3 235.62 343.16 189.57 280 205.88C226.49 219.7 192.64 233.42 186.67 280C178.92 340.48 250.31 349.19 252.55 420C254.74 489.19 236.68 508.8 195.52 560C180.4 578.8 167.76 560 140 560C70 560 58.95 571.05 0 560C-11.05 557.93 -5.64 545.31 0 533.75C28.49 475.31 68.25 476.41 68.25 420C68.25 366.01 27.1 368.52 0 312.94C-7.03 298.52 0 296.47 0 280C0 210 0 210 0 140C0 70 -35 35 0 0C35 -35 70 0 140 0C198.34 0 198.49 -1.76 256.67 0" stroke="rgba(0, 0, 0, 1)" stroke-width="2"></path><path d="M582.4 140C597.9 92.66 643.5 78.75 700 78.75C744.3 78.75 770.03 97.32 784 140C802.97 197.95 748.1 225.04 765.88 280C776.1 311.62 800.77 305.11 840 313.16C907.83 327.07 917.32 335.72 980 323.92C1005.39 319.14 1007.6 306.3 1016.13 280C1037.42 214.34 1040.58 209.83 1039.63 140C1038.67 69.83 989.41 39.89 1012.31 0C1029.6 -30.11 1066.15 0 1120 0C1190 0 1190 0 1260 0C1330 0 1330 0 1400 0C1433.25 0 1441.54 -16.91 1466.5 0C1511.54 30.51 1513.3 43.98 1540 94.84C1550.05 113.98 1540 117.42 1540 140C1540 178.89 1561.81 217.78 1540 217.78C1498.18 217.78 1476.52 178.63 1412.73 140C1406.52 136.24 1406.43 133 1400 133C1393.07 133 1393.59 138.2 1386 140C1323.59 154.82 1307.21 131.51 1260 166.25C1212.09 201.51 1233.44 227.16 1195.76 280C1163.44 325.32 1159.91 323.38 1120 362.56C1088.6 393.38 1053.13 391.39 1053.13 420C1053.13 448.46 1084.06 476.71 1120 476.71C1166.19 476.71 1170.74 451.22 1217.39 420C1240.74 404.37 1236.15 383.02 1260 383.02C1296.65 383.02 1338.4 397.43 1338.4 420C1338.4 445.61 1290.97 442.86 1260 479.39C1231.62 512.86 1252.93 540.86 1219.7 560C1182.93 581.17 1169.85 560 1120 560C1050 560 1050 560 980 560C952.71 560 947.9 572.45 925.42 560C877.9 533.68 889.9 508.14 840 482.46C777.19 450.14 769.73 464.13 700 444C661.55 432.9 635.6 449.78 623.64 420C602.66 367.78 644.11 347.86 634.12 280C623.49 207.86 564.96 193.29 582.4 140" stroke="rgba(0, 0, 0, 1)" stroke-width="2"></path><path d="M1444 420C1444 376.94 1512.38 315 1540 315C1560.38 315 1540 367.5 1540 420C1540 442.71 1554.38 465.41 1540 465.41C1506.38 465.41 1444 452.14 1444 420" stroke="rgba(0, 0, 0, 1)" stroke-width="2"></path><path d="M350 560C350 514.87 365.89 457.63 420 427.57C470.89 399.3 507.41 409.33 560 443.33C609.82 475.54 624.81 520.73 624.81 560C624.81 579.07 592.4 560 560 560C490 560 490 560 420 560C385 560 350 581.09 350 560" stroke="rgba(0, 0, 0, 1)" stroke-width="2"></path><path d="M1358.52 560C1358.52 541.29 1383.66 501.05 1400 501.05C1414.06 501.05 1419.31 537.52 1419.31 560C1419.31 567 1409.65 560 1400 560C1379.26 560 1358.52 570.77 1358.52 560" stroke="rgba(0, 0, 0, 1)" stroke-width="2"></path><path d="M36.3 0C91.53 34.52 80.43 60.54 140 87.5C202.28 115.69 209.6 106.61 280 110.3C349.6 113.94 353.79 92.18 420 102.16C452.36 107.03 477.14 121.51 477.14 140C477.14 158.15 451.74 173.12 420 175.44C353.17 180.32 346.08 141.91 280 154.41C206.08 168.4 214.26 210.68 140 228.42C74.26 244.12 44.31 249.27 0 221.29C-25.69 205.06 0 180.64 0 140C0 70 -14.41 55.59 0 0C3.74 -14.41 21.53 -9.23 36.3 0" stroke="rgba(0, 0, 0, 1)" stroke-width="2"></path><path d="M1104.44 140C1109.9 119.29 1108.26 100 1120 100C1135.13 100 1153.28 114.52 1158.18 140C1170.58 204.52 1168.57 214.93 1154.59 280C1149.48 303.77 1138.77 317.69 1120 317.69C1097.77 317.69 1074.89 306.36 1072.58 280C1067.11 217.52 1086.19 209.29 1104.44 140" stroke="rgba(0, 0, 0, 1)" stroke-width="2"></path><path d="M112 420C112 370.89 122.5 322.61 140 322.61C158.46 322.61 183.92 370.38 183.92 420C183.92 481.29 158.29 544.44 140 544.44C122.33 544.44 112 481.81 112 420" stroke="rgba(0, 0, 0, 1)" stroke-width="2"></path><path d="M815.65 420C815.65 413.88 826.16 407.57 840 405.26C908.34 393.85 915.4 386.63 980 392.55C995.85 394 1000.9 403.75 1000.9 420C1000.9 475.81 1012.28 534.94 980 536.67C931.83 539.25 911.7 479.52 840 428.62C829.53 421.19 815.65 425.56 815.65 420" stroke="rgba(0, 0, 0, 1)" stroke-width="2"></path><path d="M400 560C400 547.11 401.77 522.16 420 522.16C481.77 522.16 560 550.37 560 560C560 569.29 490 560 420 560C410 560 400 566.03 400 560" stroke="rgba(0, 0, 0, 1)" stroke-width="2"></path><path d="M991.67 560C991.67 550.04 1059.8 521.01 1120 521.01C1147.3 521.01 1166.67 548.97 1166.67 560C1166.67 568.46 1143.34 560 1120 560C1055.84 560 991.67 569.53 991.67 560" stroke="rgba(0, 0, 0, 1)" stroke-width="2"></path></g><defs><mask id="SvgjsMask1136"><rect width="1440" height="560" fill="#ffffff"></rect></mask><linearGradient x1="50%" y1="100%" x2="50%" y2="0%" gradientUnits="userSpaceOnUse" id="SvgjsLinearGradient1137"><stop stop-color="#0e2a47" offset="0"></stop><stop stop-color="rgba(234, 45, 77, 1)" offset="1"></stop></linearGradient></defs></svg>