<svg xmlns="http://www.w3.org/2000/svg" version="1.1" xmlns:xlink="http://www.w3.org/1999/xlink" xmlns:svgjs="http://svgjs.dev/svgjs" width="560" height="1440" preserveAspectRatio="none" viewBox="0 0 560 1440"><g mask="url(&quot;#SvgjsMask1030&quot;)" fill="none"><rect width="560" height="1440" x="0" y="0" fill="url(&quot;#SvgjsLinearGradient1031&quot;)"></rect><path d="M560 0L487.97 0L560 47.18z" fill="rgba(255, 255, 255, .1)"></path><path d="M487.97 0L560 47.18L560 133.2L392.59000000000003 0z" fill="rgba(255, 255, 255, .075)"></path><path d="M392.59000000000003 0L560 133.2L560 461.86L180.54000000000002 0z" fill="rgba(255, 255, 255, .05)"></path><path d="M180.53999999999996 0L560 461.86L560 910.02L122.13999999999996 0z" fill="rgba(255, 255, 255, .025)"></path><path d="M0 1440L148.65 1440L0 741.49z" fill="rgba(0, 0, 0, .1)"></path><path d="M0 741.49L148.65 1440L270.87 1440L0 416.19z" fill="rgba(0, 0, 0, .075)"></path><path d="M0 416.19000000000005L270.87 1440L437.48 1440L0 164.29000000000005z" fill="rgba(0, 0, 0, .05)"></path><path d="M0 164.28999999999996L437.48 1440L483.74 1440L0 133.83999999999997z" fill="rgba(0, 0, 0, .025)"></path></g><defs><mask id="SvgjsMask1030"><rect width="560" height="1440" fill="#ffffff"></rect></mask><linearGradient x1="-39.29%" y1="15.28%" x2="139.29%" y2="84.72%" gradientUnits="userSpaceOnUse" id="SvgjsLinearGradient1031"><stop stop-color="#0e2a47" offset="0"></stop><stop stop-color="rgba(20, 20, 35, 1)" offset="1"></stop></linearGradient></defs></svg>