<svg xmlns="http://www.w3.org/2000/svg" version="1.1" xmlns:xlink="http://www.w3.org/1999/xlink" xmlns:svgjs="http://svgjs.com/svgjs" width="860" height="1440" preserveAspectRatio="none" viewBox="0 0 860 1440"><g mask="url(&quot;#SvgjsMask1018&quot;)" fill="none"><rect width="860" height="1440" x="0" y="0" fill="url(#SvgjsLinearGradient1019)"></rect><path d="M215 188.13C122.09 214.92 70.9 178.97 0 116.93C-36.6 84.9 -37.87 20.6 0 0C69.63 -37.87 107.5 0 215 0C310.25 0 405.51 -39.11 405.51 0C405.51 54.96 324.84 156.46 215 188.13" stroke="rgba(0, 0, 0, 1)" stroke-width="2"></path><path d="M473 215C555.86 118.93 544.01 99.36 623.5 0C630.01 -8.14 634.25 0 645 0C752.5 0 806.25 -53.75 860 0C913.75 53.75 860 107.5 860 215C860 322.5 860 322.5 860 430C860 537.5 860 537.5 860 645C860 752.5 860 752.5 860 860C860 967.5 860 967.5 860 1075C860 1182.5 860 1182.5 860 1290C860 1397.5 905.44 1442.94 860 1505C826.73 1550.44 776.71 1519.25 702.59 1505C669.21 1498.58 671.66 1463.65 645 1463.65C623.9 1463.65 632.93 1500.02 607.06 1505C525.43 1520.7 518.53 1505 430 1505C322.5 1505 322.5 1505 215 1505C107.5 1505 53.75 1558.75 0 1505C-53.75 1451.25 0 1397.5 0 1290C0 1182.5 0 1182.5 0 1075C0 975.93 -29.81 951.39 0 876.86C13.19 843.89 80.73 892.97 86 860C99.26 777.04 71.85 746.77 37.07 645C28.85 620.94 4.19 632.66 0 608.35C-14.34 525.16 0 519.17 0 430C0 350.73 -37.56 271.46 0 271.46C59.32 271.46 97.85 349.67 193.77 430C205.35 439.69 202.02 451.5 215 451.5C241.3 451.5 251.78 451.71 272.33 430C359.28 338.13 344.23 316.25 430 224.35C444.56 208.75 459.11 231.11 473 215" stroke="rgba(0, 0, 0, 1)" stroke-width="2"></path><path d="M215 120.94C117.36 127.49 98.11 77.82 0 22.63C-9.39 17.35 -10.24 1.08 0 0C97.26 -10.24 107.5 0 215 0C276.24 0 337.47 -25.14 337.47 0C337.47 35.33 286.09 116.17 215 120.94" stroke="rgba(0, 0, 0, 1)" stroke-width="2"></path><path d="M860 56.09C848.01 56.09 817 17.44 817 0C817 -10.61 850.67 -12.17 860 0C872.17 15.87 869.51 56.09 860 56.09" stroke="rgba(0, 0, 0, 1)" stroke-width="2"></path><path d="M0 325.76C39.01 325.76 66.23 375.1 127.41 430C173.73 471.57 171.2 474.35 215 518.69C277.37 581.85 339.75 578.86 339.75 645C339.75 718.57 276.05 798.11 215 798.11C155.6 798.11 161.23 717.78 98.85 645C53.73 592.36 26.81 605.58 0 547.27C-22.62 498.08 0 488.63 0 430C0 377.88 -24.7 325.76 0 325.76" stroke="rgba(0, 0, 0, 1)" stroke-width="2"></path><path d="M799.8 645C805.81 582.87 844.05 529.23 860 529.23C874.15 529.23 860 587.12 860 645C860 752.5 860 752.5 860 860C860 967.5 860 967.5 860 1075C860 1182.5 860 1182.5 860 1290C860 1397.5 883.89 1421.39 860 1505C853.17 1528.89 824.93 1518.52 798.57 1505C717.43 1463.39 716.1 1394.74 645 1394.74C588.72 1394.74 604.88 1473.69 543.82 1505C497.38 1528.82 486.91 1505 430 1505C322.5 1505 322.5 1505 215 1505C107.5 1505 62.55 1549.95 0 1505C-44.95 1472.69 -13.71 1423.58 0 1350.47C6.45 1316.08 40.31 1320.38 40.31 1290C40.31 1258.94 6.6 1262.79 0 1227.58C-13.55 1155.29 0 1151.29 0 1075C0 1028.63 -31.65 1004.2 0 982.25C75.85 929.65 124.36 901.16 215 925.89C294.33 947.53 308.82 988.54 339.93 1075C374.33 1170.6 316.57 1194.59 346.02 1290C361.6 1340.48 387.86 1366.79 430 1366.79C472.51 1366.79 470.98 1326.38 515.32 1290C578.48 1238.17 583.67 1244.18 645 1190.37C706.19 1136.68 721.95 1144.37 760.37 1075C813.44 979.18 817.93 969.58 827.98 860C837.65 754.58 789.8 748.25 799.8 645" stroke="rgba(0, 0, 0, 1)" stroke-width="2"></path><path d="M215 53.75C164.28 53.75 104.74 14.15 104.74 0C104.74 -12.72 159.87 0 215 0C242.22 0 269.43 -11.17 269.43 0C269.43 15.7 246.63 53.75 215 53.75" stroke="rgba(0, 0, 0, 1)" stroke-width="2"></path><path d="M0 380.05C18.69 380.05 61.05 404.14 61.05 430C61.05 457.21 18.2 486.19 0 486.19C-12.33 486.19 0 458.1 0 430C0 405.02 -11.84 380.05 0 380.05" stroke="rgba(0, 0, 0, 1)" stroke-width="2"></path><path d="M160.63 645C160.63 614.15 187.29 585.88 215 585.88C243.67 585.88 273.4 614.04 273.4 645C273.4 679.44 243.58 716.67 215 716.67C187.19 716.67 160.63 679.55 160.63 645" stroke="rgba(0, 0, 0, 1)" stroke-width="2"></path><path d="M30.71 1075C44.53 1013.88 131.61 1012.58 215 1012.58C249.9 1012.58 260.84 1036.9 267.3 1075C284.36 1175.61 222.51 1200.46 262.03 1290C303.86 1384.75 349.03 1363.92 430 1443.57C458.31 1471.42 480.59 1486.22 480.59 1505C480.59 1516.94 455.29 1505 430 1505C322.5 1505 322.5 1505 215 1505C138.22 1505 73.87 1547.66 61.43 1505C42.52 1440.16 159.75 1394.46 152.29 1290C144.39 1179.46 13.17 1152.59 30.71 1075" stroke="rgba(0, 0, 0, 1)" stroke-width="2"></path><path d="M825.91 1075C855.33 1037.91 851.19 984.84 860 984.84C868.24 984.84 860 1029.92 860 1075C860 1182.5 860 1182.5 860 1290C860 1353.53 897.88 1410.74 860 1417.05C790.38 1428.65 749.23 1376.89 645 1325.83C619.55 1313.36 600.63 1307.65 600.63 1290C600.63 1272.69 624.79 1275.2 645 1255.91C737.43 1167.7 747.83 1173.45 825.91 1075" stroke="rgba(0, 0, 0, 1)" stroke-width="2"></path></g><defs><mask id="SvgjsMask1018"><rect width="860" height="1440" fill="#ffffff"></rect></mask><linearGradient x1="50%" y1="100%" x2="50%" y2="0%" gradientUnits="userSpaceOnUse" id="SvgjsLinearGradient1019"><stop stop-color="#0e2a47" offset="0"></stop><stop stop-color="rgba(162, 44, 4, 1)" offset="1"></stop></linearGradient></defs></svg>